<svg width="52" height="53" viewBox="0 0 52 53" fill="none" xmlns="http://www.w3.org/2000/svg">
<path d="M51.02 11.8888C51.0389 11.9588 51.0486 12.031 51.0488 12.1036V23.3839C51.0488 23.5287 51.0105 23.6709 50.938 23.7962C50.8654 23.9214 50.7611 24.0253 50.6355 24.0974L41.1678 29.5483V40.3526C41.1678 40.6466 41.0115 40.918 40.7566 41.0661L20.9936 52.443C20.9484 52.4687 20.899 52.4851 20.8497 52.5026C20.8312 52.5088 20.8137 52.5201 20.7941 52.5252C20.656 52.5616 20.5108 52.5616 20.3726 52.5252C20.35 52.519 20.3294 52.5067 20.3079 52.4985C20.2626 52.482 20.2153 52.4676 20.1721 52.443L0.413292 41.0661C0.28777 40.994 0.183474 40.89 0.110915 40.7648C0.0383564 40.6395 9.94568e-05 40.4973 0 40.3526L0 6.51182C0 6.43779 0.0102809 6.36583 0.0287865 6.29592C0.034955 6.27227 0.0493483 6.25068 0.057573 6.22704C0.0729944 6.18386 0.0873876 6.13965 0.110006 6.09955C0.125427 6.07282 0.148045 6.05123 0.166551 6.02656C0.190197 5.99366 0.211786 5.95973 0.239545 5.93094C0.263191 5.9073 0.294034 5.88982 0.320764 5.86926C0.350579 5.84458 0.377309 5.81785 0.411236 5.79832H0.412264L10.2922 0.109874C10.4173 0.0378871 10.5591 0 10.7034 0C10.8478 0 10.9896 0.0378871 11.1147 0.109874L20.9946 5.79832H20.9967C21.0296 5.81888 21.0573 5.84458 21.0871 5.86823C21.1139 5.88879 21.1437 5.9073 21.1673 5.92992C21.1961 5.95973 21.2167 5.99366 21.2414 6.02656C21.2588 6.05123 21.2825 6.07282 21.2969 6.09955C21.3205 6.14068 21.3339 6.18386 21.3503 6.22704C21.3586 6.25068 21.373 6.27227 21.3791 6.29695C21.3981 6.36701 21.4077 6.43924 21.4079 6.51182V27.6484L29.6408 22.9079V12.1026C29.6408 12.0306 29.6511 11.9576 29.6696 11.8888C29.6768 11.8641 29.6902 11.8425 29.6984 11.8188C29.7149 11.7757 29.7293 11.7315 29.7519 11.6914C29.7673 11.6646 29.7899 11.643 29.8074 11.6184C29.8321 11.5855 29.8526 11.5515 29.8814 11.5227C29.9051 11.4991 29.9349 11.4816 29.9616 11.4611C29.9925 11.4364 30.0192 11.4097 30.0521 11.3901H30.0531L39.9341 5.70168C40.0591 5.62959 40.201 5.59165 40.3453 5.59165C40.4897 5.59165 40.6315 5.62959 40.7566 5.70168L50.6365 11.3901C50.6714 11.4107 50.6982 11.4364 50.729 11.46C50.7547 11.4806 50.7845 11.4991 50.8082 11.5217C50.837 11.5515 50.8575 11.5855 50.8822 11.6184C50.9007 11.643 50.9233 11.6646 50.9377 11.6914C50.9614 11.7315 50.9747 11.7757 50.9912 11.8188C51.0004 11.8425 51.0138 11.8641 51.02 11.8888ZM49.4018 22.9079V13.5275L45.9443 15.5179L41.1678 18.2681V27.6484L49.4028 22.9079H49.4018ZM39.5218 39.8766V30.4901L34.8234 33.1734L21.4069 40.8306V50.3055L39.5218 39.8766ZM1.647 7.93573V39.8766L19.7599 50.3045V40.8317L10.2973 35.4763L10.2943 35.4743L10.2901 35.4722C10.2583 35.4537 10.2315 35.427 10.2017 35.4044C10.176 35.3838 10.1462 35.3673 10.1236 35.3447L10.1215 35.3416C10.0948 35.3159 10.0763 35.2841 10.0537 35.2553C10.0331 35.2275 10.0085 35.2039 9.992 35.1751L9.99097 35.172C9.97247 35.1412 9.96116 35.1041 9.94779 35.0692C9.93443 35.0383 9.91695 35.0096 9.90873 34.9767V34.9756C9.89845 34.9366 9.89639 34.8954 9.89228 34.8553C9.88816 34.8245 9.87994 34.7937 9.87994 34.7628V12.6763L5.10446 9.92509L1.647 7.93676V7.93573ZM10.7045 1.77333L2.47256 6.51182L10.7024 11.2503L18.9333 6.51079L10.7024 1.77333H10.7045ZM14.9854 31.3454L19.7609 28.5963V7.93573L16.3034 9.92612L11.5269 12.6763V33.3368L14.9854 31.3454ZM40.3453 7.36514L32.1144 12.1036L40.3453 16.8421L48.5752 12.1026L40.3453 7.36514ZM39.5218 18.2681L34.7453 15.5179L31.2878 13.5275V22.9079L36.0633 25.657L39.5218 27.6484V18.2681ZM20.5824 39.4067L32.6552 32.5144L38.6901 29.0703L30.4654 24.3349L20.9956 29.7868L12.3648 34.7556L20.5824 39.4067Z" fill="#FF2D20"/>
</svg>
