<svg width="52" height="54" viewBox="0 0 52 54" fill="none" xmlns="http://www.w3.org/2000/svg">
<path fill-rule="evenodd" clip-rule="evenodd" d="M52 16.2967C52 15.2797 51.4687 14.3456 50.5989 13.8399L27.3989 0.370318C27.0109 0.142128 26.5727 0.0148704 26.1238 0H25.8839C25.4391 0.0165814 25.0004 0.138179 24.6022 0.370318L1.4033 13.8399C0.97676 14.0904 0.622726 14.4492 0.3765 14.8808C0.130274 15.3124 0.000459817 15.8015 0 16.2995L0.0509396 52.5795C0.0509396 53.0825 0.308376 53.5523 0.746566 53.801C1.1738 54.0663 1.71058 54.0663 2.13782 53.801L15.9298 45.8309C16.8008 45.308 17.3321 44.3839 17.3321 43.3769V26.4279C17.3311 25.9316 17.4599 25.4438 17.7057 25.0139C17.9514 24.5839 18.3053 24.2271 18.7315 23.9794L24.6033 20.567C25.0291 20.3174 25.513 20.1862 26.0055 20.1867C26.4853 20.1867 26.975 20.3116 27.3989 20.5664L33.2679 23.9778C34.1366 24.4807 34.6701 25.4148 34.6701 26.4263V43.3741C34.6701 44.38 35.2086 45.3086 36.0751 45.8281L49.8583 53.7927C50.0704 53.9203 50.3126 53.9876 50.5595 53.9876C50.8063 53.9876 51.0485 53.9203 51.2606 53.7927C51.4716 53.6677 51.6467 53.4893 51.7685 53.275C51.8903 53.0608 51.9546 52.8182 51.9551 52.5712L52 16.2967Z" fill="#58AA50"/>
</svg>
