<svg width="50" height="50" viewBox="0 0 50 50" fill="none" xmlns="http://www.w3.org/2000/svg">
<path d="M46.0552 37.9608C43.3348 37.893 41.2263 38.1651 39.458 38.9131C38.9479 39.117 38.1316 39.1172 38.0636 39.7634C38.3357 40.0355 38.3697 40.4776 38.6078 40.8515C39.0163 41.5315 39.7299 42.4498 40.3761 42.9261C41.0901 43.4701 41.8045 44.0141 42.5524 44.4902C43.8787 45.3065 45.3752 45.7824 46.6674 46.5986C47.4158 47.0744 48.1634 47.687 48.9117 48.1969C49.2858 48.4686 49.5237 48.9111 50 49.081V48.9792C49.7617 48.6729 49.6937 48.2309 49.4558 47.8908C49.1161 47.5507 48.7756 47.2446 48.4355 46.9045C47.4494 45.5785 46.2253 44.4222 44.8991 43.4701C43.8109 42.7219 41.4302 41.7018 40.9883 40.4434C40.9883 40.4434 40.9541 40.4096 40.9203 40.3756C41.6683 40.3075 42.5524 40.0355 43.2668 39.8314C44.4229 39.5251 45.477 39.5933 46.6674 39.2872C47.2114 39.1512 47.7555 38.9811 48.2995 38.8111V38.5052C47.6877 37.893 47.2456 37.077 46.5994 36.4988C44.865 35.0021 42.9605 33.5401 40.9883 32.3159C39.934 31.6357 38.5736 31.1936 37.4514 30.6156C37.0437 30.4114 36.3633 30.3095 36.1254 29.9694C35.513 29.2214 35.1729 28.2353 34.731 27.351C33.7451 25.4805 32.7926 23.4062 31.9423 21.434C31.3306 20.1076 30.9564 18.7812 30.2082 17.5573C26.7056 11.7761 22.8968 8.27345 17.0478 4.83862C15.7895 4.1246 14.2932 3.81851 12.6949 3.44459C11.8451 3.41039 10.9946 3.34256 10.1445 3.30836C9.60038 3.07028 9.05622 2.42429 8.58008 2.11819C6.64208 0.893827 1.64278 -1.75838 0.214545 1.74428C-0.703731 3.95455 1.57495 6.13081 2.3568 7.25334C2.93536 8.03538 3.68319 8.91945 4.09132 9.80372C4.32939 10.3815 4.39721 10.9941 4.63528 11.6061C5.17964 13.1019 5.6894 14.7686 6.40381 16.163C6.77793 16.8771 7.18585 17.6251 7.662 18.2713C7.93408 18.6452 8.41003 18.8154 8.51225 19.4274C8.0363 20.1076 8.0021 21.1279 7.72982 21.978C6.50565 25.8208 6.98199 30.5816 8.71612 33.4041C9.26008 34.2539 10.5525 36.1249 12.2868 35.4105C13.8173 34.7985 13.4772 32.8601 13.9189 31.1598C14.0213 30.7513 13.9533 30.4796 14.1572 30.2075V30.2757C14.6333 31.2276 15.1093 32.1461 15.5514 33.0982C16.6057 34.7643 18.4419 36.4988 19.9721 37.6551C20.7886 38.2669 21.4346 39.3212 22.4549 39.6954V39.5931H22.3867C22.1826 39.287 21.8765 39.1512 21.6046 38.9129C20.9926 38.3011 20.3122 37.5529 19.8363 36.8727C18.4082 34.9681 17.1497 32.8599 16.0275 30.6834C15.4836 29.6295 15.0072 28.4732 14.5653 27.419C14.361 27.0105 14.361 26.3987 14.0211 26.1949C13.511 26.9429 12.7629 27.5891 12.3888 28.5072C11.743 29.9694 11.6748 31.7718 11.4367 33.6419C11.3007 33.6763 11.3685 33.6419 11.3005 33.7103C10.2126 33.4379 9.83845 32.3159 9.43014 31.3636C8.40983 28.9493 8.23978 25.0725 9.12424 22.2841C9.36231 21.5699 10.3826 19.3256 9.97449 18.6454C9.77043 17.9992 9.09003 17.6251 8.71612 17.1151C8.27418 16.4689 7.79784 15.6531 7.49195 14.9387C6.6757 13.0343 6.26758 10.9259 5.38351 9.02148C4.97539 8.13722 4.26156 7.21933 3.68319 6.40309C3.0372 5.48501 2.32298 4.83862 1.81283 3.75049C1.64297 3.37657 1.40471 2.76439 1.67679 2.35627C1.74481 2.08418 1.88065 1.98235 2.15293 1.91433C2.59506 1.54002 3.85344 2.01616 4.29518 2.22022C5.55356 2.72999 6.60768 3.20652 7.662 3.92054C8.13794 4.26064 8.6481 4.90684 9.26009 5.07689H9.9743C11.0626 5.31476 12.2866 5.14491 13.3069 5.4508C15.1094 6.02878 16.7415 6.87903 18.204 7.79731C22.6589 10.6198 26.3312 14.6326 28.814 19.4274C29.2221 20.2093 29.392 20.9239 29.7661 21.7397C30.4805 23.4062 31.3646 25.1065 32.0784 26.7388C32.7926 28.3369 33.4726 29.9694 34.4929 31.2958C35.0031 32.0096 37.0433 32.3839 37.9616 32.7581C38.6418 33.064 39.6961 33.3362 40.3081 33.7101C41.4642 34.424 42.6204 35.2406 43.7087 36.0225C44.2529 36.4306 45.953 37.2808 46.0552 37.9608Z" fill="#00546B"/>
<path d="M11.3683 8.40906C10.7904 8.40906 10.3824 8.47747 9.9743 8.5793V8.64732H10.0423C10.3146 9.19149 10.7904 9.5656 11.1303 10.0415C11.4025 10.5855 11.6404 11.1299 11.9127 11.674C11.9465 11.6398 11.9805 11.606 11.9805 11.606C12.4569 11.2657 12.6947 10.7218 12.6947 9.90551C12.4907 9.66763 12.4567 9.42956 12.2866 9.19149C12.0827 8.85119 11.6404 8.68133 11.3683 8.40906Z" fill="#00546B"/>
</svg>
