<svg width="66" height="59" viewBox="0 0 66 59" fill="none" xmlns="http://www.w3.org/2000/svg">
<path d="M0 29.3939C0 34.3499 4.82319 38.9762 12.427 41.584C10.9085 49.2538 12.155 55.4359 16.3178 57.8446C20.5965 60.3206 26.9711 58.6067 33.0215 53.3C38.9192 58.3924 44.8796 60.3964 49.0388 57.9807C53.3137 55.4978 54.6136 48.8966 53.0533 40.9872C60.9732 38.36 65.4034 34.4151 65.4034 29.3939C65.4034 24.553 60.5714 20.3652 53.07 17.7741C54.7498 9.53799 53.3265 3.50602 48.9912 0.997746C44.8117 -1.42051 38.7819 0.68721 32.7976 5.91267C26.5716 0.366358 20.6014 -1.32689 16.2708 1.18835C12.0951 3.61357 10.9036 9.9081 12.427 17.7197C5.07973 20.2899 0 24.5726 0 29.3939Z" fill="white"/>
<path d="M51.4814 20.3472C50.8632 20.1344 50.2397 19.9373 49.6116 19.756C49.7158 19.3313 49.8121 18.9047 49.9005 18.4765C51.3159 11.5828 50.3905 6.02928 47.2302 4.20115C44.2003 2.44782 39.2447 4.27595 34.2397 8.64587C33.7465 9.07746 33.2643 9.52148 32.7935 9.97751C32.4782 9.67428 32.1574 9.37693 31.8311 9.08563C26.5858 4.41265 21.3282 2.44369 18.1712 4.27724C15.1441 6.03547 14.2475 11.2565 15.5217 17.7896C15.6485 18.4366 15.7916 19.0802 15.951 19.7199C15.2071 19.9319 14.4886 20.1578 13.8012 20.3982C7.65184 22.5493 3.72449 25.9208 3.72449 29.4177C3.72449 33.0296 7.94026 36.6523 14.3457 38.8487C14.865 39.026 15.3887 39.1903 15.9163 39.3413C15.7449 40.0305 15.5928 40.7243 15.46 41.422C14.2451 47.8416 15.194 52.9388 18.2131 54.6862C21.3315 56.4904 26.5652 54.636 31.6617 50.1662C32.0645 49.8129 32.4688 49.4381 32.8737 49.0453C33.3837 49.539 33.9072 50.0183 34.4438 50.4827C39.3804 54.7448 44.2558 56.4659 47.2724 54.7138C50.3879 52.9043 51.4002 47.4284 50.0856 40.7661C49.9854 40.2572 49.8684 39.7375 49.7373 39.2083C50.1049 39.0994 50.4656 38.987 50.8175 38.8699C57.4763 36.6564 61.8085 33.0778 61.8085 29.4177C61.8085 25.9081 57.7547 22.5139 51.4814 20.3472Z" fill="#53C1DE"/>
<path d="M50.0369 36.5068C49.7194 36.6123 49.3934 36.7142 49.0613 36.8129C48.3261 34.478 47.3339 31.995 46.1201 29.43C47.2786 26.9256 48.2323 24.4746 48.9469 22.1546C49.541 22.3274 50.1178 22.5093 50.6736 22.7014C56.0487 24.5577 59.3272 27.3027 59.3272 29.4176C59.3272 31.6705 55.7862 34.5953 50.0371 36.5068H50.0369ZM47.6514 41.2497C48.2326 44.1956 48.3156 46.8591 47.9305 48.9413C47.5845 50.8123 46.8889 52.0596 46.0288 52.5592C44.1983 53.6223 40.2836 52.2404 36.0622 48.5955C35.5781 48.1776 35.0905 47.7314 34.6015 47.2594C36.2382 45.4633 37.8739 43.3752 39.4702 41.0565C42.2783 40.8066 44.9312 40.3978 47.337 39.8399C47.4552 40.3196 47.5606 40.7898 47.6514 41.2497ZM23.5265 52.3755C21.7381 53.0092 20.3137 53.0273 19.4529 52.5292C17.6205 51.4692 16.8591 47.376 17.8979 41.8862C18.0214 41.2374 18.1629 40.5922 18.3221 39.9513C20.7011 40.4793 23.3347 40.8592 26.1495 41.0882C27.7564 43.3571 29.4393 45.4426 31.1354 47.269C30.7749 47.6188 30.4059 47.9597 30.0287 48.2914C27.7751 50.2681 25.5169 51.6701 23.5267 52.3755H23.5265ZM15.1482 36.4929C12.3159 35.5215 9.97693 34.2593 8.37365 32.882C6.9331 31.644 6.20563 30.415 6.20563 29.4176C6.20563 27.2957 9.35896 24.5889 14.6181 22.7491C15.2782 22.5192 15.9449 22.3088 16.6173 22.118C17.3442 24.4901 18.2976 26.9702 19.4482 29.4782C18.2827 32.0236 17.3157 34.5432 16.582 36.9432C16.1005 36.8049 15.6224 36.6547 15.1482 36.4929ZM17.9568 17.3114C16.8651 11.7138 17.59 7.4914 19.4143 6.43187C21.3577 5.30321 25.6544 6.91263 30.1832 10.9473C30.4727 11.2052 30.7634 11.4752 31.0547 11.7545C29.3673 13.5726 27.6998 15.6424 26.1068 17.8982C23.3751 18.1522 20.76 18.5603 18.356 19.1068C18.2079 18.5117 18.0748 17.913 17.9568 17.3112V17.3114ZM43.0115 23.5188C42.4436 22.5346 41.8548 21.5629 41.2452 20.6043C43.0986 20.839 44.8741 21.1511 46.5414 21.533C46.0409 23.1427 45.417 24.8259 44.6823 26.5514C44.1456 25.5294 43.5885 24.5184 43.0115 23.5188ZM32.7942 13.5337C33.9386 14.7776 35.0848 16.1668 36.2123 17.6738C33.9252 17.5654 31.6344 17.5648 29.3473 17.6722C30.4758 16.1791 31.6318 14.7921 32.7942 13.5337ZM22.5113 23.5358C21.9415 24.5274 21.3949 25.5323 20.8718 26.5496C20.1492 24.83 19.531 23.1394 19.0261 21.5067C20.6834 21.1345 22.4507 20.8305 24.292 20.5996C23.6756 21.5642 23.0819 22.5432 22.5113 23.5358ZM24.3449 38.4133C22.4427 38.2003 20.6487 37.9117 18.992 37.5498C19.5048 35.8883 20.1366 34.1613 20.8746 32.4048C21.3999 33.4229 21.949 34.4283 22.5214 35.4204C23.1054 36.4325 23.7135 37.4304 24.3449 38.4133ZM32.8628 45.4775C31.6868 44.2041 30.5138 42.7959 29.3681 41.2811C30.4801 41.325 31.614 41.3472 32.7664 41.3472C33.9504 41.3472 35.1208 41.3206 36.2727 41.269C35.1416 42.8114 33.9995 44.2217 32.8628 45.4775ZM44.706 32.3153C45.4823 34.0909 46.1368 35.8086 46.6565 37.442C44.9723 37.8276 43.1541 38.1381 41.2383 38.3687C41.8522 37.3921 42.4467 36.4034 43.0215 35.4031C43.6058 34.3865 44.1674 33.357 44.706 32.3153ZM40.872 34.1595C39.9921 35.693 39.0628 37.1975 38.0855 38.6705C36.3621 38.794 34.5812 38.8577 32.7664 38.8577C30.959 38.8577 29.2008 38.8012 27.5075 38.6911C26.5048 37.2216 25.5579 35.7145 24.6688 34.1731C23.7839 32.6399 22.9573 31.0736 22.1908 29.4775C22.9553 27.8808 23.7794 26.3137 24.6614 24.7792V24.7797C25.543 23.2449 26.4825 21.7443 27.4777 20.2811C29.2051 20.1501 30.9763 20.0815 32.7667 20.0815C34.565 20.0815 36.3385 20.1506 38.0654 20.2826C39.0505 21.7436 39.984 23.239 40.864 24.7661C41.749 26.2971 42.5841 27.8566 43.368 29.4421C42.5922 31.0438 41.7597 32.6172 40.8722 34.1595H40.872ZM45.9908 6.35785C47.9357 7.4834 48.6922 12.022 47.4701 17.974C47.39 18.3617 47.303 18.748 47.209 19.1326C44.7993 18.5747 42.1824 18.1595 39.4427 17.9015C37.8466 15.6213 36.193 13.5479 34.5329 11.7533C34.9679 11.3325 35.4133 10.9226 35.8686 10.524C40.1568 6.77954 44.1646 5.30115 45.9908 6.35785Z" fill="white"/>
<path d="M32.7665 24.2136C35.6312 24.2136 37.9532 26.5437 37.9532 29.4177C37.9532 32.2919 35.6312 34.6219 32.7665 34.6219C29.9021 34.6219 27.5798 32.2919 27.5798 29.4177C27.5798 26.5437 29.9021 24.2136 32.7665 24.2136Z" fill="#53C1DE"/>
</svg>
