<svg width="50" height="55" viewBox="0 0 50 55" fill="none" xmlns="http://www.w3.org/2000/svg">
<path d="M44.346 7.99978C42.9176 3.00033 6.74587 3.0001 5.34596 7.99978C1.85927 20.4524 4.07381 39.3551 24.8493 50.3737L24.7959 54.9999C-1.15406 42.4999 -0.670166 22 0.345928 11.0001C0.946363 4.5 5.34596 3.00011 5.34596 3.00011C16.3459 -1.00011 31.8459 -0.999964 44.346 3.00011C44.346 3.00011 48.8844 5.00011 49.3459 11.0001C52.3459 38.5001 36.2668 50.0001 24.8098 55.0001L24.8598 50.3737C46.1222 39.34 47.3345 18.4601 44.346 7.99978Z" fill="#499D4A"/>
<path fill-rule="evenodd" clip-rule="evenodd" d="M25.694 44.9645L24.6834 44.6191C24.6834 44.6191 24.8068 39.467 22.9576 39.0973C21.7253 37.6673 23.1553 -21.5473 27.5925 38.8999C27.5925 38.8999 26.0639 39.6639 25.7928 40.9708C25.4968 42.2528 25.694 44.9645 25.694 44.9645Z" fill="white"/>
<path fill-rule="evenodd" clip-rule="evenodd" d="M25.694 44.9645L24.6834 44.6191C24.6834 44.6191 24.8068 39.467 22.9576 39.0973C21.7253 37.6673 23.1553 -21.5473 27.5925 38.8999C27.5925 38.8999 26.0639 39.6639 25.7928 40.9708C25.4968 42.2528 25.694 44.9645 25.694 44.9645Z" fill="#A6A385"/>
<path fill-rule="evenodd" clip-rule="evenodd" d="M26.2365 39.9848C26.2365 39.9848 35.0869 34.1667 33.0158 22.0623C31.0191 13.2618 26.3105 10.3775 25.7928 9.26807C25.2259 8.4792 24.6833 7.09888 24.6833 7.09888L25.0533 31.5781C25.0533 31.603 24.289 39.0725 26.2368 39.9851" fill="white"/>
<path fill-rule="evenodd" clip-rule="evenodd" d="M26.2365 39.9848C26.2365 39.9848 35.0869 34.1667 33.0158 22.0623C31.0191 13.2618 26.3105 10.3775 25.7928 9.26807C25.2259 8.4792 24.6833 7.09888 24.6833 7.09888L25.0533 31.5781C25.0533 31.603 24.289 39.0725 26.2368 39.9851" fill="#499D4A"/>
<path fill-rule="evenodd" clip-rule="evenodd" d="M24.1659 40.3051C24.1659 40.3051 15.8578 34.635 16.3509 24.6511C16.8192 14.667 22.6865 9.76118 23.8205 8.87373C24.5602 8.08486 24.5848 7.78887 24.6342 7C25.1519 8.10944 25.0534 23.5911 25.1271 25.4151C25.3488 32.441 24.7328 38.9742 24.1659 40.3051Z" fill="white"/>
<path fill-rule="evenodd" clip-rule="evenodd" d="M24.1659 40.3051C24.1659 40.3051 15.8578 34.635 16.3509 24.6511C16.8192 14.667 22.6865 9.76118 23.8205 8.87373C24.5602 8.08486 24.5848 7.78887 24.6342 7C25.1519 8.10944 25.0534 23.5911 25.1271 25.4151C25.3488 32.441 24.7328 38.9742 24.1659 40.3051Z" fill="#58AA50"/>
</svg>
