<svg width="473" height="474" viewBox="0 0 473 474" fill="none" xmlns="http://www.w3.org/2000/svg">
<path d="M393.207 185.752L394.04 188.309L375.814 194.246L374.981 191.689L393.207 185.752ZM389.834 175.398L390.667 177.955L372.441 183.892L371.608 181.335L389.834 175.398ZM382.318 179.607L385.613 189.723L383.181 190.515L379.886 180.399L382.318 179.607Z" fill="#FF5B14"/>
<path d="M398.627 206.096L398.973 208.763L379.964 211.231L379.618 208.564L398.627 206.096ZM382.322 209.529L383.739 220.445L381.203 220.775L379.786 209.858L382.322 209.529ZM390.493 208.468L391.723 217.947L389.187 218.276L387.957 208.797L390.493 208.468ZM398.795 207.39L400.212 218.307L397.676 218.636L396.259 207.72L398.795 207.39Z" fill="#FF5B14"/>
<path d="M401.363 234.429L401.249 237.116L382.097 236.308L382.211 233.621L401.363 234.429ZM384.709 235.072L384.247 246.031L381.691 245.923L382.154 234.964L384.709 235.072Z" fill="#FF5B14"/>
<path d="M399.337 261.803L398.776 264.433L380.028 260.436L380.589 257.805L399.337 261.803ZM382.81 259.654L380.523 270.381L378.021 269.848L380.309 259.12L382.81 259.654Z" fill="#FF5B14"/>
<path d="M372.434 287.254C372.939 286.018 373.653 285.037 374.576 284.313C375.507 283.592 376.571 283.173 377.768 283.055C378.97 282.948 380.222 283.16 381.524 283.693L386.552 285.748C387.853 286.28 388.892 287.004 389.667 287.919C390.446 288.845 390.912 289.89 391.063 291.053C391.222 292.22 391.049 293.421 390.543 294.658C390.038 295.894 389.32 296.873 388.389 297.594C387.466 298.318 386.404 298.734 385.202 298.84C384.004 298.959 382.755 298.752 381.453 298.22L376.425 296.164C375.124 295.632 374.083 294.903 373.303 293.976C372.528 293.061 372.061 292.021 371.902 290.854C371.751 289.691 371.928 288.491 372.434 287.254ZM374.887 288.257C374.587 288.989 374.487 289.699 374.586 290.385C374.691 291.083 374.982 291.705 375.461 292.252C375.945 292.811 376.585 293.253 377.383 293.579L382.581 295.704C383.378 296.03 384.141 296.161 384.87 296.098C385.603 296.047 386.247 295.807 386.802 295.379C387.362 294.962 387.791 294.387 388.09 293.655C388.39 292.923 388.487 292.208 388.383 291.51C388.284 290.824 387.993 290.202 387.509 289.643C387.03 289.096 386.392 288.659 385.594 288.333L380.396 286.208C379.599 285.882 378.833 285.745 378.1 285.797C377.372 285.86 376.728 286.1 376.168 286.516C375.613 286.945 375.186 287.525 374.887 288.257Z" fill="#FF5B14"/>
<path d="M347.506 324.088L349.183 322.139L362.387 345.239L360.711 347.188L347.506 324.088Z" fill="#FF5B14"/>
<path d="M327.671 344.282L329.704 342.709L338.018 367.984L335.986 369.557L327.671 344.282Z" fill="#FF5B14"/>
<path d="M280.813 373.761L283.38 372.962L289.077 391.265L286.509 392.064L280.813 373.761Z" fill="#FF5B14"/>
<path d="M255.318 398.638L253.031 398.819L244.475 380.267L247.366 380.038L253.883 395.035L257.959 379.2L260.85 378.971L255.318 398.638ZM258.138 385.97L248.084 386.766L247.882 384.216L257.936 383.42L258.138 385.97Z" fill="#FF5B14"/>
<path d="M215.662 398.032L213.165 397.71L215.614 378.698L218.216 379.033L216.381 393.273L216.358 392.419L222.426 382.261L224.282 382.5L227.611 393.603L227.339 394.684L229.173 380.445L231.775 380.78L229.326 399.792L226.829 399.47L222.862 386.198L215.662 398.032Z" fill="#FF5B14"/>
<path d="M175.339 387.229L173.245 386.293L174.614 365.909L177.262 367.092L175.804 383.378L186.964 371.428L189.612 372.611L175.339 387.229ZM183.879 377.457L174.671 373.342L175.715 371.007L184.923 375.122L183.879 377.457Z" fill="#FF5B14"/>
<path d="M141.166 368.231L139.079 366.535L151.165 351.657L153.253 353.352L141.166 368.231ZM145.53 360.769L138.315 354.909L139.928 352.923L147.142 358.784L145.53 360.769ZM140.143 367.4L131.803 360.625L133.416 358.64L141.756 365.414L140.143 367.4Z" fill="#FF5B14"/>
<path d="M130.879 332.823C131.802 333.896 132.384 334.996 132.623 336.123C132.85 337.249 132.733 338.359 132.271 339.452C131.802 340.552 130.998 341.591 129.859 342.572L120.586 350.552L118.831 348.514L128.175 340.473C129.234 339.561 129.824 338.59 129.945 337.558C130.066 336.526 129.708 335.524 128.871 334.552C128.028 333.572 127.087 333.066 126.049 333.031C125.005 332.991 123.954 333.426 122.894 334.337L113.551 342.378L111.797 340.339L121.07 332.359C122.209 331.379 123.357 330.739 124.514 330.439C125.664 330.145 126.782 330.198 127.868 330.597C128.947 331.002 129.95 331.744 130.879 332.823Z" fill="#FF5B14"/>
<path d="M101.141 326.284L99.7781 323.966L116.303 314.25L117.666 316.569L101.141 326.284ZM114.779 316.706L109.22 307.25L111.425 305.954L116.984 315.41L114.779 316.706Z" fill="#FF5B14"/>
<path d="M87.9862 302.193L87.0297 299.679L104.946 292.862L105.902 295.376L87.9862 302.193ZM103.033 295.028L99.1325 284.777L101.523 283.867L105.424 294.119L103.033 295.028Z" fill="#FF5B14"/>
<path d="M94.7908 254.722C94.8865 255.64 94.8898 256.519 94.8007 257.358C94.7115 258.198 94.5295 258.995 94.2545 259.748C93.9787 260.493 93.6109 261.203 93.1511 261.878L90.9319 260.426C91.4856 259.635 91.8743 258.786 92.0979 257.879C92.3214 256.972 92.3799 256.007 92.2732 254.984C92.1292 253.603 91.7641 252.559 91.1778 251.851C90.5827 251.144 89.8175 250.84 88.8821 250.937L88.869 250.938C88.2047 251.008 87.6984 251.237 87.3502 251.627C86.9924 252.009 86.7504 252.485 86.6242 253.055C86.4884 253.617 86.387 254.339 86.3199 255.221C86.3138 255.248 86.3127 255.279 86.3163 255.314C86.319 255.34 86.3174 255.367 86.3114 255.394L86.2926 255.595C86.2071 256.894 86.0708 257.959 85.8836 258.792C85.6869 259.617 85.2553 260.351 84.589 260.995C83.9139 261.639 82.9033 262.032 81.5571 262.172L81.544 262.174C80.3638 262.297 79.3312 262.139 78.446 261.701C77.5512 261.256 76.8324 260.549 76.2896 259.58C75.7468 258.612 75.4011 257.415 75.2526 255.99C75.1815 255.308 75.1861 254.632 75.2663 253.961C75.3457 253.281 75.5007 252.606 75.7314 251.937C75.9524 251.26 76.2535 250.588 76.6346 249.921L78.9174 251.221C78.4598 252.002 78.1377 252.769 77.9511 253.522C77.7548 254.267 77.6945 255.002 77.7702 255.728C77.906 257.03 78.274 258.017 78.8741 258.688C79.4646 259.351 80.2363 259.633 81.1891 259.533L81.2022 259.532C81.8579 259.463 82.3545 259.226 82.6921 258.82C83.0288 258.405 83.2602 257.912 83.3864 257.342C83.5029 256.765 83.6058 255.972 83.6951 254.964C83.7002 254.928 83.7058 254.897 83.7118 254.869C83.7081 254.835 83.7088 254.799 83.7139 254.763C83.7181 254.719 83.7219 254.67 83.7251 254.616C83.7284 254.563 83.7321 254.514 83.7363 254.469C83.852 253.291 84.0315 252.3 84.2747 251.497C84.5171 250.685 84.9741 249.984 85.6459 249.392C86.308 248.793 87.2641 248.428 88.5142 248.298L88.5404 248.295C89.7031 248.174 90.7283 248.345 91.6162 248.81C92.4953 249.275 93.2081 250.009 93.7546 251.012C94.2914 252.008 94.6368 253.244 94.7908 254.722Z" fill="#FF5B14"/>
<path d="M75.8697 230.669L76.0267 227.984L93.5968 229.012L93.4397 231.696L75.8697 230.669ZM73.9871 235.986L74.777 222.483L77.3302 222.632L76.5404 236.136L73.9871 235.986Z" fill="#FF5B14"/>
<path d="M77.2964 204.37L77.8062 202.133L98.0662 199.503L97.4216 202.331L81.1633 204.075L95.0602 212.692L94.4157 215.519L77.2964 204.37ZM88.5453 210.842L90.7865 201.008L93.2802 201.577L91.0389 211.41L88.5453 210.842Z" fill="#FF5B14"/>
<path d="M104.224 181.751C103.697 182.969 102.962 183.924 102.02 184.618C101.081 185.303 100.006 185.685 98.7936 185.763C97.5815 185.842 96.3222 185.598 95.0157 185.032L90.1889 182.941C88.8824 182.375 87.8432 181.623 87.0714 180.685C86.2995 179.747 85.8425 178.702 85.7005 177.548C85.5538 176.383 85.7443 175.192 86.2718 173.974C86.7086 172.966 87.3281 172.133 88.1304 171.475C88.9247 170.813 89.8393 170.371 90.8742 170.149C91.9126 169.919 92.9957 169.928 94.1234 170.177L93.0281 172.706C92.4133 172.621 91.8136 172.668 91.2289 172.846C90.6397 173.012 90.1234 173.286 89.6798 173.669C89.2363 174.051 88.9028 174.501 88.6792 175.017C88.3683 175.735 88.2691 176.439 88.3818 177.129C88.4946 177.82 88.8008 178.451 89.3006 179.022C89.7923 179.589 90.4535 180.053 91.2842 180.413L96.111 182.504C96.9336 182.86 97.7241 183.025 98.4824 182.999C99.2407 182.973 99.9103 182.765 100.491 182.375C101.064 181.982 101.506 181.426 101.817 180.708C102.044 180.184 102.152 179.637 102.14 179.067C102.132 178.488 101.991 177.929 101.717 177.389C101.447 176.841 101.051 176.363 100.528 175.955L101.624 173.426C102.577 174.079 103.324 174.862 103.867 175.777C104.409 176.692 104.714 177.668 104.783 178.703C104.844 179.735 104.657 180.751 104.224 181.751Z" fill="#FF5B14"/>
<path d="M106.743 157.188L102.559 144.155L104.41 141.412L109.867 159.772L106.743 157.188ZM96.6457 152.92L98.1498 150.69L114.041 161.411L112.536 163.641L96.6457 152.92ZM107.02 153.526L106.578 150.667L120.75 151.466L118.907 154.198L107.02 153.526Z" fill="#FF5B14"/>
<path d="M136.448 129.409L139.76 126.609C140.84 125.695 141.441 124.71 141.56 123.654C141.681 122.585 141.31 121.54 140.447 120.52L136.804 116.212C135.941 115.191 134.976 114.655 133.907 114.603C132.84 114.539 131.766 114.964 130.686 115.877L127.374 118.678L125.722 116.725L128.974 113.975C130.148 112.982 131.325 112.339 132.503 112.044C133.682 111.75 134.821 111.811 135.921 112.227C137.021 112.644 138.04 113.406 138.976 114.513L142.483 118.661C143.419 119.768 144.001 120.899 144.229 122.053C144.457 123.207 144.324 124.343 143.832 125.462C143.346 126.575 142.515 127.628 141.341 128.621L138.099 131.362L136.448 129.409ZM124.333 117.9L126.387 116.163L138.764 130.801L136.71 132.537L124.333 117.9Z" fill="#FF5B14"/>
<path d="M148.896 98.571L151.232 97.2386L160.729 113.89L158.393 115.222L148.896 98.571ZM158.259 112.354L167.822 106.9L169.089 109.121L159.527 114.575L158.259 112.354ZM154.177 105.196L162.48 100.461L163.747 102.683L155.444 107.418L154.177 105.196ZM150.03 97.9244L159.592 92.4704L160.859 94.6921L151.297 100.146L150.03 97.9244Z" fill="#FF5B14"/>
<path d="M172.254 85.9197L175.008 84.9304L184.419 97.5196L183.669 81.8197L186.423 80.8303L187.022 100.983L184.615 101.848L172.254 85.9197Z" fill="#FF5B14"/>
<path d="M200.954 76.5645L203.604 76.106L206.873 94.9943L204.222 95.4528L200.954 76.5645ZM205.073 92.7101L215.92 90.8333L216.356 93.3535L205.509 95.2303L205.073 92.7101ZM203.668 84.591L213.086 82.9615L213.522 85.4816L204.104 87.1112L203.668 84.591ZM202.24 76.342L213.088 74.4652L213.524 76.9854L202.677 78.8622L202.24 76.342Z" fill="#FF5B14"/>
<path d="M229.146 72.6349L231.836 72.6347L231.837 91.8037L229.148 91.8038L229.146 72.6349ZM230.492 89.2461L241.461 89.2455L241.461 91.8031L230.492 91.8037L230.492 89.2461Z" fill="#FF5B14"/>
<path d="M259.65 93.6364C258.335 93.4 257.227 92.9061 256.327 92.1547C255.427 91.3947 254.795 90.4415 254.43 89.2953C254.074 88.142 254.021 86.8733 254.27 85.4892L255.232 80.1433C255.48 78.7593 255.972 77.5929 256.705 76.6442C257.448 75.6884 258.373 75.0153 259.479 74.6248C260.587 74.2257 261.798 74.1444 263.113 74.3808C264.428 74.6173 265.535 75.1155 266.434 75.8755C267.335 76.6269 267.963 77.5793 268.318 78.7326C268.683 79.8788 268.741 81.144 268.492 82.528L267.531 87.8739C267.282 89.258 266.786 90.4279 266.043 91.3837C265.309 92.3324 264.389 93.0063 263.281 93.4054C262.175 93.7959 260.965 93.8729 259.65 93.6364ZM260.119 91.0283C260.898 91.1684 261.612 91.1182 262.262 90.878C262.923 90.6307 263.471 90.2157 263.906 89.6332C264.352 89.0435 264.65 88.3248 264.803 87.4771L265.797 81.9495C265.949 81.1018 265.919 80.3283 265.705 79.6291C265.502 78.9228 265.133 78.3429 264.598 77.8896C264.074 77.4291 263.422 77.1289 262.644 76.9889C261.865 76.8489 261.146 76.9026 260.485 77.1499C259.834 77.3901 259.287 77.8051 258.841 78.3947C258.406 78.9773 258.112 79.6924 257.96 80.5402L256.966 86.0677C256.813 86.9154 256.839 87.6925 257.042 88.3988C257.256 89.098 257.625 89.6779 258.149 90.1383C258.684 90.5917 259.34 90.8883 260.119 91.0283Z" fill="#FF5B14"/>
<path d="M284.873 88.9662L290.603 91.1473C291.145 91.3537 291.67 91.4077 292.177 91.3094C292.685 91.2111 293.139 90.9701 293.539 90.5863C293.947 90.2057 294.267 89.7115 294.498 89.1036C294.733 88.4876 294.824 87.9017 294.772 87.3459C294.729 86.7933 294.55 86.3115 294.237 85.9005C293.926 85.4813 293.499 85.1685 292.957 84.9621L287.228 82.7811L288.138 80.3908L293.781 82.539C294.849 82.9455 295.702 83.5336 296.34 84.3031C296.981 85.0645 297.366 85.9444 297.493 86.9428C297.629 87.9444 297.489 88.9915 297.073 90.0839C296.658 91.1764 296.066 92.0514 295.298 92.7091C294.542 93.3616 293.671 93.759 292.686 93.9012C291.701 94.0434 290.674 93.9112 289.607 93.5047L283.964 91.3565L284.873 88.9662ZM286.844 79.8983L289.358 80.8552L282.538 98.7699L280.024 97.813L286.844 79.8983Z" fill="#FF5B14"/>
<path d="M314.415 91.4734L316.718 92.8627L306.816 109.276L304.513 107.887L314.415 91.4734ZM306.952 106.371L316.378 112.058L315.056 114.247L305.631 108.561L306.952 106.371ZM311.208 99.3157L319.392 104.253L318.071 106.443L309.887 101.506L311.208 99.3157ZM315.533 92.1476L324.959 97.8343L323.638 100.024L314.212 94.3375L315.533 92.1476Z" fill="#FF5B14"/>
<path d="M333.801 114.21L338.694 118.548C339.075 118.886 339.496 119.094 339.955 119.172C340.414 119.251 340.871 119.192 341.326 118.997C341.794 118.8 342.223 118.482 342.614 118.041C343.004 117.601 343.266 117.14 343.399 116.658C343.545 116.177 343.551 115.712 343.418 115.266C343.292 114.825 343.035 114.433 342.647 114.089L337.754 109.751L339.45 107.837L344.265 112.105C345.093 112.84 345.668 113.655 345.99 114.551C346.318 115.452 346.374 116.371 346.156 117.305C345.95 118.239 345.483 119.117 344.755 119.939C344.026 120.761 343.207 121.333 342.299 121.656C341.396 121.971 340.478 122.02 339.543 121.803C338.615 121.591 337.74 121.121 336.918 120.392L332.104 116.124L333.801 114.21ZM338.572 107.059L340.585 108.843L327.86 123.197L325.848 121.413L338.572 107.059ZM336.404 119.143L338.809 120.465L336.305 130.683L333.917 128.566L336.404 119.143Z" fill="#FF5B14"/>
</svg>
