<svg width="664" height="195" viewBox="0 0 664 195" fill="none" xmlns="http://www.w3.org/2000/svg">
<g filter="url(#filter0_d)">
<path d="M58.1503 112.687V137.843H32V66.5299H128.451V112.687H58.1503ZM58.1503 163V137.843H128.451V163H58.1503Z" fill="url(#paint0_linear)"/>
<path d="M166.175 91.6866V163H140.025V66.5299H204.326V91.6866H166.175Z" fill="url(#paint1_linear)"/>
<path d="M242.05 91.6866V163H215.9V66.5299H280.2V91.6866H242.05Z" fill="url(#paint2_linear)"/>
<path d="M292 163V32.3732H318.15V66.5299H388.451V163H292ZM365.301 91.6866H318.15V138.843H365.301V91.6866Z" fill="url(#paint3_linear)"/>
<path d="M425.95 66.5299V163H399.8V66.5299H425.95Z" fill="url(#paint4_linear)"/>
<path d="M503.825 163V91.6866H463.674V163H439.524V66.5299H527.975V163H503.825Z" fill="url(#paint5_linear)"/>
<path d="M599.85 91.6866V163H573.699V91.6866H541.549V66.5299H632V91.6866H599.85Z" fill="url(#paint6_linear)"/>
</g>
<defs>
<filter id="filter0_d" x="0" y="0.373169" width="664" height="194.627" filterUnits="userSpaceOnUse" color-interpolation-filters="sRGB">
<feFlood flood-opacity="0" result="BackgroundImageFix"/>
<feColorMatrix in="SourceAlpha" type="matrix" values="0 0 0 0 0 0 0 0 0 0 0 0 0 0 0 0 0 0 127 0"/>
<feOffset/>
<feGaussianBlur stdDeviation="16"/>
<feColorMatrix type="matrix" values="0 0 0 0 0 0 0 0 0 0 0 0 0 0 0 0 0 0 0.2 0"/>
<feBlend mode="normal" in2="BackgroundImageFix" result="effect1_dropShadow"/>
<feBlend mode="normal" in="SourceGraphic" in2="effect1_dropShadow" result="shape"/>
</filter>
<linearGradient id="paint0_linear" x1="340" y1="24" x2="340" y2="163" gradientUnits="userSpaceOnUse">
<stop stop-color="#FCB90E"/>
<stop offset="1" stop-color="#FE7213"/>
</linearGradient>
<linearGradient id="paint1_linear" x1="340" y1="24" x2="340" y2="163" gradientUnits="userSpaceOnUse">
<stop stop-color="#FCB90E"/>
<stop offset="1" stop-color="#FE7213"/>
</linearGradient>
<linearGradient id="paint2_linear" x1="340" y1="24" x2="340" y2="163" gradientUnits="userSpaceOnUse">
<stop stop-color="#FCB90E"/>
<stop offset="1" stop-color="#FE7213"/>
</linearGradient>
<linearGradient id="paint3_linear" x1="340" y1="24" x2="340" y2="163" gradientUnits="userSpaceOnUse">
<stop stop-color="#FCB90E"/>
<stop offset="1" stop-color="#FE7213"/>
</linearGradient>
<linearGradient id="paint4_linear" x1="340" y1="24" x2="340" y2="163" gradientUnits="userSpaceOnUse">
<stop stop-color="#FCB90E"/>
<stop offset="1" stop-color="#FE7213"/>
</linearGradient>
<linearGradient id="paint5_linear" x1="340" y1="24" x2="340" y2="163" gradientUnits="userSpaceOnUse">
<stop stop-color="#FCB90E"/>
<stop offset="1" stop-color="#FE7213"/>
</linearGradient>
<linearGradient id="paint6_linear" x1="340" y1="24" x2="340" y2="163" gradientUnits="userSpaceOnUse">
<stop stop-color="#FCB90E"/>
<stop offset="1" stop-color="#FE7213"/>
</linearGradient>
</defs>
</svg>
