<svg width="35" height="35" viewBox="0 0 485 512" fill="none" xmlns="http://www.w3.org/2000/svg">
<g clip-path="url(#clip0)">
<path d="M182 349V477.259C182 486.219 187.728 494.156 196.21 496.977C198.33 497.668 200.506 498 202.654 498C209.098 498 215.322 494.958 219.287 489.538L294 387.439L182 349Z" fill="black"/>
<path d="M478.28 2.96527C473.373 -0.512063 466.931 -0.981396 461.597 1.81327L-18.4027 252.48C-24.0773 255.445 -27.4267 261.504 -26.9573 267.883C-26.4667 274.283 -22.2213 279.744 -16.184 281.813L117.256 327.424L401.437 84.4373L181.533 349.376L405.171 425.813C406.835 426.368 408.584 426.667 410.333 426.667C413.235 426.667 416.115 425.877 418.653 424.341C422.707 421.867 425.459 417.707 426.163 413.035L484.829 18.3679C485.704 12.3946 483.187 6.46394 478.28 2.96527V2.96527Z" fill="black"/>
</g>
<defs>
<clipPath id="clip0">
<rect width="512" height="512" fill="white" transform="translate(-27)"/>
</clipPath>
</defs>
</svg>
